<svg xml:space="preserve" style="enable-background:new 0 0 500 1000;" viewBox="0 0 500 1000" y="0px" x="0px" xmlns:xlink="http://www.w3.org/1999/xlink" xmlns="http://www.w3.org/2000/svg" id="Teenage_Boy_2" version="1.1">
<style type="text/css">
	.st0{fill:#FEAF5B;}
	.st1{opacity:0.15;}
</style>
<g id="Teenage_Boy_Base_2">
	<path d="M356.3,316.4c-1.3-24.4-15.2-39.9-23.1-43.9l0-0.1c-5.4-4-56-20.1-56-20.1v-22.4H250h-27.3v22.4
		c0,0-50.6,16.1-56,20.1c-7.9,3.8-21.9,19.3-23.3,44c-1.3,24.7-1.8,80-0.6,87.1c1.3,7.1,6.2,17,9.6,20.3c3.4,3.2,14,5.2,19.5,5.7
		c1.6,0.1,3.4,0.2,5.1,0.2c0.7,0,1.3,0,2,0c1.2,28.1,0.2,53.5,0.2,55.9c0,5.3,0,13,0,14.7c0,1.7-6,185-6,192.3s1,17.3,1,24.3
		s1,139.2,1,139.2c-0.5,2.5-9.8,11.1-13.2,13.6c-3.3,2.5-23.2,12.7-25.2,14.8s-3.3,8.2-0.7,10c2.7,1.8,15.8,3.2,23,3.2
		c7.5,0,13.8-3,19-4.3c5.2-1.3,11.1-5.6,13.8-6.8c2.7-1.2,15.7-1.2,19.6-5.7c3.3-3.8-0.6-16.8-0.6-25c0-29.7,12.6-79.5,12.6-89.2
		c0-9.7-1.2-40.4-0.6-46.1c0.7-6.7,2-13.9,3.7-24.2c1.7-10.3,21.4-137.2,21.4-137.2h1.9h1.9c0,0,11.8,128.2,13.5,138.5
		c1.7,10.3,5,59.3,5,69c0,9.7,4.2,59.5,5.6,89.2c0,0-5.3,23-5.3,26s-1.2,8.9,8.7,13c3.6,1.5,8.6,2.8,15,2.8c9.1,0,17.6-3.5,20.1-5
		c4-2.3,6.7-6.5,5.8-11.7s-8.7-22.4-8.7-24.9c0,0,5.7-120.9,5.7-127.9s0-25.2,0-32.5c0-7.3,4.3-193.8,4.3-195.5c0-1.7,0-9.3,0-14.7
		c0-2.4-2-27.7-0.8-55.8c0.7,0,1.3,0,2,0c10.6-0.3,16.1-2.9,19.3-5.9c3.4-3.2,8.3-13.1,9.6-20.3C353.1,396.4,357.6,341,356.3,316.4z" class="st0"></path>
	<path d="M183.5,376.9c1.7,1.7,4.6,1,4.6,1s-5.3,10.6-5,12.4c0.3,1.8,12.6,6.4,14.8,6.9c2.2,0.4,7.8-1.4,14.4,0.6
		c6.6,2.1,102.5,31.4,102.5,31.4s-16-1.1-19.8-1.4c-1.6-0.2-35.5-11.4-65.9-19.9c-25.6-7.1-48.7-11.4-49-12.2
		c-0.7-1.6-0.2-53.1-0.2-53.1S181.8,375.2,183.5,376.9z M326.9,374.8c2.4-1.2,12.4-2.9,13.8-4.5c1.4-1.6-0.3-2.2-0.8-3.5
		c-0.5-1.3,0.8-4,0.8-4s-12,6.2-15.6,8.6c-3.6,2.4-10.7,12.1-10.7,12.1S324.4,376,326.9,374.8z" class="st1"></path>
	<polygon points="277.3,284.8 277.3,229.8 250,229.8 222.7,229.8 222.7,284.8" class="st0"></polygon>
	<path d="M274.1,255.9c1-1.1,2.1-2.3,3.1-3.6v-22.4H250h-27.3v22.4c1.1,1.3,2.1,2.6,3.1,3.6c6.6,6.9,18.9,9.2,24.1,9.2
		S267.6,262.8,274.1,255.9z" class="st1"></path>
	<path d="M296.2,181c0-5.3,14.7-65.5-46.2-67c-60.8,1.5-46.2,61.7-46.2,67c-6.7-1-13.2,6.3-11.8,16.5
		c1.4,10.2,8.3,16.5,16,17c3.1,12.5,11.3,25.4,17.9,32.3c6.6,6.9,18.9,9.2,24.1,9.2s17.6-2.3,24.1-9.2c6.6-6.9,14.7-19.8,17.9-32.3
		c7.8-0.5,14.6-6.8,16-17C309.4,187.4,302.8,180,296.2,181z" class="st0"></path>
</g>
</svg>
