<svg xml:space="preserve" style="enable-background:new 0 0 500 1000;" viewBox="0 0 500 1000" y="0px" x="0px" xmlns:xlink="http://www.w3.org/1999/xlink" xmlns="http://www.w3.org/2000/svg" id="Female_1" version="1.1">
<style type="text/css">
	.st0{fill:#DDEDF3;}
	.st1{fill:#B3D1DF;}
	.st2{fill:#E4C2A6;}
	.st3{opacity:0.15;}
</style>
<g id="Bottoms_1_1_">
	<g>
		<path d="M201.6,757.8c1.1,2.3,3.8,3,3.8,3s0.9,1.5,0.9,3.9s2.3,24.3,2.3,29.1s-1.3,7.3-4.9,7.3s-35.6,0-38.8,0
			s-7.1-0.1-7.1-6.8s8-18.3,10.1-22.6s4.8-9.2,4.8-11.9c0-12.8,7.1-13.9,13.8-13.9C198.3,745.9,200.5,755.5,201.6,757.8z
			 M298.4,757.8c-1.1,2.3-3.8,3-3.8,3s-0.9,1.5-0.9,3.9s-2.3,24.3-2.3,29.1s1.3,7.3,4.9,7.3s35.6,0,38.8,0s7.1-0.1,7.1-6.8
			s-8-18.3-10.1-22.6s-4.8-9.2-4.8-11.9c0-12.8-7.1-13.9-13.8-13.9C301.7,745.9,299.5,755.5,298.4,757.8z" class="st0"></path>
		<path d="M157.8,794.3c1.6,1.5,14-7,22.1-7s19.7,7.6,24.1,8.2c4.4,0.6,4.5-1.7,4.5-1.7c0,4.9-1.3,7.3-4.9,7.3
			s-35.6,0-38.8,0S157.8,800.9,157.8,794.3z M342.3,794.3c-1.6,1.5-14-7-22.1-7s-19.7,7.6-24.1,8.2c-4.4,0.6-4.5-1.7-4.5-1.7
			c0,4.9,1.3,7.3,4.9,7.3s35.6,0,38.8,0S342.3,800.9,342.3,794.3z" class="st1"></path>
	</g>
	<g>
		<path d="M340.2,544.2c-10.2-5.7-28-13.1-52.4-13.1c-12,0-21.5,5.3-27.3,12.3c-3.6,4.5-4.1,6.1-5.4,6.3s-2.3,0-2.3,0
			s-1.9,0.3-2-0.8c-0.1-0.5-0.1-2.9,0.1-5.5c-0.6,0-1,0-1,0s-0.4,0-1,0c0.2,2.6,0.2,5,0.1,5.5c-0.1,1-2,0.8-2,0.8s-1,0.1-2.3,0
			s-1.8-1.8-5.4-6.3c-5.8-7-15.3-12.3-27.3-12.3c-24.4,0-42.3,7.4-52.4,13.1c-5.8,13-12.9,29.5-9.4,42.7c2.6,9.7,7.9,20.4,26.3,29.9
			c-2.1,34-6.7,68.7-7.5,115.1c26.9,10.1,48.5,5,48.5,5c7.7-42.1,22.5-90,27.7-117.3c1.5,0,4.6,0,4.6,0s3.1,0,4.6,0
			c5.2,27.3,20.1,75.2,27.7,117.3c0,0,21.6,5.1,48.5-5c-0.9-46.4-5.5-81.1-7.5-115.1c18.4-9.4,23.7-20.2,26.3-29.9
			C353.1,573.6,346,557.2,340.2,544.2z" class="st2"></path>
		<path d="M250,583.3l4.6,36.2h-9.3L250,583.3z M154.8,597.8c3.8,6.4,10.2,12.9,21.9,18.9c0.7-6.8,2.8-24.4,8.8-55.4
			c-6.3,11.5-11.8,39.3-11.8,39.3L154.8,597.8z M255.1,549.5c-1.3,0.1-2.3,0-2.3,0s-1.9,0.3-2-0.8c-0.1-0.5-0.1-2.9,0.1-5.5
			c-0.6,0-1,0-1,0s-0.4,0-1,0c0.2,2.6,0.2,5,0.1,5.5c-0.1,1-2,0.8-2,0.8s-1,0.1-2.3,0s-1.8-1.8-5.4-6.3c3.6,4.3,8.6,19,10.5,34.9
			c1.9-15.9,6.9-30.6,10.5-34.9C256.9,547.8,256.4,549.4,255.1,549.5z M326.3,600.5c0,0-5.5-27.8-11.8-39.3c6,31,8.1,48.6,8.8,55.4
			c11.7-6,18.1-12.5,21.9-18.9L326.3,600.5z" class="st3"></path>
	</g>
</g>
</svg>
