<svg xml:space="preserve" style="enable-background:new 0 0 500 1000;" viewBox="0 0 500 1000" height="1000px" width="500px" y="0px" x="0px" xmlns:xlink="http://www.w3.org/1999/xlink" xmlns="http://www.w3.org/2000/svg" id="Male_3" version="1.1">
<style type="text/css">
	.st0{fill:#F5FBFF;}
	.st1{fill:#273252;}
	.st2{fill:#DADADC;}
	.st3{opacity:0.15;}
</style>
<g id="Male_Clothes_3">
	<path d="M167.6,750.6c31.7,37.4,149.6,40,188.1,35.3c38.5-4.7,68-11.4,82.6-21.1c0,0-12.4-243-12.6-260.5
		c10.8-19,28.8-74.1,17.5-95.4c-14.1-26.6-99.1-58.8-99.1-58.8l-3.8-13.7c-45-4.8-99.1,3.8-99.1,3.8l-3.7,14.9
		c0,0-50.1,16.5-81.4,45.1c-31.3,28.6-59.8,64.5-77.2,95.2c18.7,24.8,37.7,39,81.3,48.3c7.6-6.8,20-23.5,26.7-32.8
		c-1.8,28.9,2.6,135.5-2.3,161.6C181.5,686.3,167.6,750.6,167.6,750.6" class="st0"></path>
	<path d="M432.4,647.6c0.1,2.4,0.2,4.8,0.4,7.1c-19-0.2-60.5,0.6-103.8,1.3c-45.1,0.8-91.4,1.7-121.6,1.7
		c-7.5,0-15.5-0.1-21.1-0.2c0.1-2.2,0.2-4.5,0.3-7c26.7,0.6,88.8-0.5,142.3-1.5C371.9,648.3,413,647.5,432.4,647.6z M364.4,683.5
		c31-0.8,56-1.4,69.7-1.2c-0.1-2.3-0.2-4.6-0.3-7c-14-0.2-38.9,0.4-69.5,1.1c-54.1,1.3-127.1,3.3-180.7,1.1c-0.4,2-1,4.4-1.5,6.9
		c18,0.7,38.7,0.9,59.7,0.9C283.5,685.5,328.3,684.3,364.4,683.5z M186.9,512.3l-0.2,7c0,0,0,0,0,0c16.7,0,186-1.7,239.5-2.5
		c-0.1-2.7-0.2-5.1-0.3-7C372.2,510.6,203.6,512.3,186.9,512.3C186.9,512.3,186.9,512.3,186.9,512.3z M201.6,630
		c23.1,0,71.2-0.7,117.9-1.4c46.6-0.7,90.9-1.4,111.8-1.4c-0.1-2.4-0.2-4.7-0.3-7c-21.1,0-65.3,0.7-111.6,1.4
		c-50.6,0.8-110.7,1.5-132.4,1.4c0,2.4,0,4.7-0.1,7.1C192.1,630,198.7,630,201.6,630z M414.8,711.4c7.8-0.2,15.4-0.3,20.7-0.3
		c-0.1-2.3-0.2-4.7-0.4-7c-5.4,0.1-13,0.2-20.6,0.4c-53.4,1.3-165.1,4-236.8-0.8c-0.5,2.3-1,4.6-1.5,6.9
		c31.6,2.1,72.5,2.8,110.7,2.8C336.3,713.3,384.6,712.1,414.8,711.4z M427.3,544.3c-0.1-2.4-0.2-4.8-0.3-7
		c-32.3,0.1-105.3,1-160.4,1.8c-32.1,0.4-69.1,0.8-80.1,0.8c0,2.3,0,4.6,0,7c11.2-0.1,48.2-0.4,80.1-0.8
		C322,545.4,395.3,544.4,427.3,544.3z M280,566.7c-35.1,0.7-77.1,1.2-93.3,1.3c0,2.3,0,4.7,0.1,7c4.3,0,9.7,0,9.9,0
		c11.5,0,44.9-0.6,83.5-1.4c53.7-1,118.9-2.2,148.5-2.2c-0.1-2.4-0.2-4.7-0.3-7C398.4,564.5,333.5,565.7,280,566.7z M194.3,484.5
		l-0.8,7c12.7,0.2,202.2-1.2,239.2-2.5c0.9-2.2,1.7-4.5,2.6-6.9C387.4,483.5,211.3,484.7,194.3,484.5z M322.2,593.9
		c-48.1,0.8-109.1,1.6-135.3,1.4c0,2.4,0,4.7,0,7.1c7,0,16.7,0,20.2,0c26,0,71.2-0.7,115.1-1.5c44.1-0.7,86.2-1.4,107.6-1.4
		c-0.1-2.3-0.2-4.7-0.3-7C408,592.5,366.1,593.1,322.2,593.9z M135.9,476.2c13,9.4,35.6,24.5,53.8,28.6c0.9-2,1.7-4.1,2.6-6.6
		c-12.7-2.6-31.6-12.5-52.3-27.6c-11.8-8.6-21.3-16.8-28-23.2c-1.5,1.8-2.9,3.7-4.4,5.5C115.6,460.5,126,469,135.9,476.2z
		 M116.9,511.2c11.8,8.6,31.5,21.7,48.6,27.1c1.6-1.8,3.3-3.8,5-5.9c-12.6-3.4-30.3-12.9-49.5-26.9c-14.3-10.4-25.2-20.1-31.8-27
		c-1.3,2-2.6,4.1-3.9,6.1C93.6,493,105.6,502.9,116.9,511.2z M126.9,495.2c12.3,9,33.4,23,51.1,27.9c1.6-2.1,3.1-4.2,4.6-6.1
		c-12.7-2.8-31.3-12.7-51.5-27.4c-13.9-10.1-24.5-19.5-31.1-26.4c-1.4,1.9-2.8,3.9-4.1,5.8C103.9,477.3,115.7,487.1,126.9,495.2z" class="st1"></path>
	<path d="M241.1,340.3c0,0,54.1-8.7,99.1-3.8l3.8,13.7c-14.5,0-71.2-0.1-106.6,5.1L241.1,340.3z" class="st2"></path>
	<path d="M379.2,539.1c3-37.6,7.2-77-11-120.9c-18.2-43.9-49.1-63.6-51-67.8c-0.9-2.1-1.7-4.7-4.4-15.3
		c9.1,0.1,18.4,0.5,27.4,1.5l3.8,13.7c0,0,85,32.2,99.1,58.8c11.3,21.3-6.7,76.4-17.5,95.4c0.2,17.5,12.6,260.5,12.6,260.5
		c-12.7,8.3-36.3,14.5-67.3,19c-7.2-23-20.9-42.8-20.9-56.3c0-19.6,4.8-32.8,10.1-62C368.7,617.2,376.4,575.2,379.2,539.1z
		 M160.3,543.8c-19.2-4.1-33.7-9.2-45.4-15.7c10.2-1.2,18.2,0.7,24.1-1.1c9-2.6,42-34.6,55-56.6c2,46,3.3,199.7-16.7,235.7
		c3.1-14.4,6.1-28,7.4-33.5c4.9-26.1,0.5-132.7,2.3-161.6C180.3,520.3,167.9,537,160.3,543.8z" class="st3"></path>
</g>
</svg>
